# xmcd CD database file
#
# Track frame offsets:
#	150
#	22533
#	43170
#	66338
#	85167
#	105018
#	124760
#	147796
#	164023
#	189750
#
# Disc length: 2735 seconds
#
# Revision: 0
# Processed by: cddbd v1.5.1PL2 Copyright (c) Steve Scherf et al.
# Submitted via: CDex 1.51
#
DISCID=750aad0a
DTITLE=Lauren Kinhan - Hardly Blinking
DYEAR=1999
DGENRE=Jazz
TTITLE0=All You Need
TTITLE1=Forsaken Population
TTITLE2=Heaven and Earth
TTITLE3=Welcome to the Show
TTITLE4=Are You Listening
TTITLE5=Mourning Lullabye
TTITLE6=Abelene Rose
TTITLE7=Trouble Runs in the Family
TTITLE8=I Saw Love Today
TTITLE9=Ask Amelia
EXTD=YEAR: 1999
EXTT0=
EXTT1=
EXTT2=
EXTT3=
EXTT4=
EXTT5=
EXTT6=
EXTT7=
EXTT8=
EXTT9=
PLAYORDER=
